# xmcd
#
# Track frame offsets:
#	150
#	8441
#	35371
#	60852
#	116016
#	161941
#
# Disc length: 2910 seconds
#
# Revision: 0
# Processed by: cddbd v1.5.2PL0 Copyright (c) Steve Scherf et al.
# Submitted via: audiograbber 1.83.01
#
DISCID=3d0b5c06
DTITLE=Grateful Dead - 93-09-16 Madison Square Garden, New York NY
DYEAR=1900
DGENRE=
TTITLE0=Crowd and Tuning 2
TTITLE1=China Cat Sunflower
TTITLE2=I Know You Rider
TTITLE3=Estimated Prophet
TTITLE4=Eyes Of The World
TTITLE5=Drums
EXTD=
EXTT0=
EXTT1=
EXTT2=
EXTT3=
EXTT4=
EXTT5=
PLAYORDER=
